<svg width="409" height="70" viewBox="0 0 409 70" fill="none" xmlns="http://www.w3.org/2000/svg">
<mask id="mask0_229_49" style="mask-type:luminance" maskUnits="userSpaceOnUse" x="0" y="0" width="409" height="70">
<path d="M409 0H0V69.3942H409V0Z" fill="white"/>
</mask>
<g mask="url(#mask0_229_49)">
<mask id="mask1_229_49" style="mask-type:luminance" maskUnits="userSpaceOnUse" x="0" y="0" width="409" height="70">
<path d="M409 0H0V69.3942H409V0Z" fill="white"/>
</mask>
<g mask="url(#mask1_229_49)">
<path d="M160.381 7.59678C160.381 4.16981 163.161 1.3739 166.604 1.3739C170.031 1.3739 172.826 4.15383 172.826 7.59678C172.707 11.0238 169.815 13.6998 166.38 13.58C163.121 13.4602 160.509 10.848 160.381 7.59678Z" fill="#99A2B3"/>
</g>
<mask id="mask2_229_49" style="mask-type:luminance" maskUnits="userSpaceOnUse" x="0" y="0" width="409" height="70">
<path d="M409 0H0V69.3942H409V0Z" fill="white"/>
</mask>
<g mask="url(#mask2_229_49)">
<path d="M258.453 49.048C258.453 45.5971 261.233 42.8092 264.652 42.8092C268.095 42.8092 270.883 45.5971 270.883 49.048C270.883 52.491 268.095 55.2789 264.652 55.2789C261.233 55.2789 258.453 52.483 258.453 49.048Z" fill="#99A2B2"/>
</g>
<mask id="mask3_229_49" style="mask-type:luminance" maskUnits="userSpaceOnUse" x="0" y="0" width="409" height="70">
<path d="M409 0H0V69.3942H409V0Z" fill="white"/>
</mask>
<g mask="url(#mask3_229_49)">
<path d="M58.3943 46.3559C53.0502 46.3559 49.3196 42.1062 49.3196 36.0271C49.3196 29.956 53.0422 25.7062 58.3943 25.7062C63.7704 25.7062 67.5409 29.956 67.5409 36.0271C67.5329 42.202 63.8583 46.3559 58.3943 46.3559ZM58.3943 16.6315C47.0749 16.6315 38.855 24.7876 38.855 36.0271C38.855 47.2666 47.0829 55.4226 58.3943 55.4226C69.7696 55.4226 78.0135 47.2666 78.0135 36.0351C78.0135 24.7876 69.7537 16.6315 58.3943 16.6315ZM148.35 37.0017C147.959 36.2428 147.456 35.5318 146.873 34.9087L146.529 34.5492L146.889 34.2058C147.408 33.6546 147.943 33.0075 148.446 32.2566L158.44 17.3984H146.305L138.796 29.0214C138.373 29.6524 137.518 29.948 136.232 29.948H134.515V7.97223C134.515 3.57867 131.783 2.98755 128.819 2.98755H123.754L123.762 54.8475H134.507V39.3023H135.513C136.735 39.3023 137.566 39.4461 137.958 40.1091L143.885 51.3007C145.546 54.3362 147.192 54.8555 150.292 54.8555H158.551L152.408 44.7183L148.35 37.0017ZM200.546 16.5516C195.074 16.5516 191.583 18.9801 189.634 21.0411L188.987 21.7041L188.755 20.8094C188.18 18.6046 186.247 17.4064 183.331 17.4064H178.514L178.546 54.8555H189.226V37.6008C189.226 35.9073 189.442 34.4534 189.889 33.1114C191.08 29.0693 194.395 26.545 198.533 26.545C201.864 26.545 203.174 28.3024 203.174 32.8557V49.1678C203.174 53.0421 204.963 54.8634 208.854 54.8634H213.926L213.902 31.0424C213.902 21.5443 209.277 16.5516 200.546 16.5516ZM166.739 17.3984H161.675L161.707 46.3559V54.8475H167.107L167.299 54.8555L169.823 54.8475H172.323V54.8395H172.347L172.371 23.0941C172.355 19.2597 170.526 17.3984 166.739 17.3984ZM100.325 46.3559C94.9806 46.3559 91.2501 42.1062 91.2501 36.0271C91.2501 29.956 94.9806 25.7062 100.325 25.7062C105.693 25.7062 109.471 29.956 109.471 36.0271C109.463 42.202 105.789 46.3559 100.325 46.3559ZM100.325 16.6315C88.9974 16.6315 80.7695 24.7876 80.7695 36.0271C80.7695 47.2666 88.9974 55.4226 100.325 55.4226C111.676 55.4226 119.944 47.2666 119.944 36.0351C119.944 24.7876 111.684 16.6315 100.325 16.6315Z" fill="#99A2B3"/>
</g>
</g>
<mask id="mask4_229_49" style="mask-type:luminance" maskUnits="userSpaceOnUse" x="0" y="0" width="409" height="70">
<path d="M409 0H0V69.3942H409V0Z" fill="white"/>
</mask>
<g mask="url(#mask4_229_49)">
<mask id="mask5_229_49" style="mask-type:luminance" maskUnits="userSpaceOnUse" x="0" y="1" width="409" height="69">
<path d="M408.912 1.36597H0V69.3063H408.912V1.36597Z" fill="white"/>
</mask>
<g mask="url(#mask5_229_49)">
<mask id="mask6_229_49" style="mask-type:luminance" maskUnits="userSpaceOnUse" x="0" y="0" width="409" height="70">
<path d="M409 0H0V69.3942H409V0Z" fill="white"/>
</mask>
<g mask="url(#mask6_229_49)">
<path d="M329.173 46.3561C323.829 46.3561 320.098 42.1063 320.098 36.0273C320.098 29.9562 323.829 25.7064 329.173 25.7064C334.549 25.7064 338.32 29.9562 338.32 36.0273C338.32 42.2022 334.637 46.3561 329.173 46.3561ZM329.173 16.6317C317.846 16.6317 309.618 24.7877 309.618 36.0273C309.618 47.2668 317.83 55.4228 329.173 55.4228C340.532 55.4228 348.792 47.2668 348.792 36.0353C348.792 24.7878 340.524 16.6317 329.173 16.6317Z" fill="#99A2B2"/>
</g>
<mask id="mask7_229_49" style="mask-type:luminance" maskUnits="userSpaceOnUse" x="0" y="0" width="409" height="70">
<path d="M409 0H0V69.3942H409V0Z" fill="white"/>
</mask>
<g mask="url(#mask7_229_49)">
<path d="M236.405 44.6945C230.566 44.6945 228.497 39.6059 228.497 34.8369C228.497 32.728 229.032 25.8821 235.862 25.8821C239.249 25.8821 243.762 26.8566 243.762 35.1804C243.754 43.0489 239.752 44.6945 236.405 44.6945ZM249.298 17.3026C247.269 17.3026 245.712 18.1095 244.929 19.5873L244.641 20.1624L244.146 19.7231C242.42 18.2293 239.329 16.4639 234.32 16.4639C224.335 16.4639 217.617 23.9569 217.617 35.1245C217.617 46.2761 224.575 54.0647 234.528 54.0647C237.923 54.0647 240.615 53.2659 242.74 51.6522L243.555 51.0372V52.0756C243.555 57.0843 240.32 59.8402 234.456 59.8402C231.596 59.8402 229.008 59.1453 227.275 58.5142C225.014 57.8272 223.68 58.4023 222.769 60.663L221.914 62.756L220.716 65.8155L221.459 66.2069C225.214 68.204 230.103 69.3862 234.512 69.3862C243.603 69.3862 254.219 64.7371 254.219 51.6363L254.251 17.2787H249.298" fill="#99A2B3"/>
</g>
</g>
</g>
<mask id="mask8_229_49" style="mask-type:luminance" maskUnits="userSpaceOnUse" x="0" y="0" width="409" height="70">
<path d="M409 0H0V69.3942H409V0Z" fill="white"/>
</mask>
<g mask="url(#mask8_229_49)">
<mask id="mask9_229_49" style="mask-type:luminance" maskUnits="userSpaceOnUse" x="0" y="0" width="409" height="70">
<path d="M409 0H0V69.3942H409V0Z" fill="white"/>
</mask>
<g mask="url(#mask9_229_49)">
<path d="M18.6367 45.9167L9.93742 45.9087V35.5239C9.93742 33.2952 10.8002 32.1529 12.6934 31.8813H18.6207C22.8465 31.8813 25.5785 34.5494 25.5945 38.863C25.5945 43.2965 22.9264 45.9167 18.6367 45.9167ZM9.93742 17.8938V15.1618C9.93742 12.7653 10.9439 11.631 13.1727 11.4872H17.6221C21.4326 11.4872 23.7172 13.7719 23.7172 17.5903C23.7172 20.506 22.1515 23.901 17.7579 23.901H9.93742V17.8938ZM29.7244 28.2626L28.1587 27.3759L29.5247 26.2016C31.1303 24.8356 33.7904 21.7442 33.7904 16.416C33.7904 8.25995 27.4717 3.00366 17.6861 3.00366H5.25629C2.35654 3.10751 0.0319531 5.48003 0 8.37977V54.6479H17.9177C28.7978 54.6479 35.8115 48.7286 35.8115 39.558C35.8115 34.6372 33.5348 30.4115 29.7244 28.2626Z" fill="#99A2B3"/>
</g>
<mask id="mask10_229_49" style="mask-type:luminance" maskUnits="userSpaceOnUse" x="0" y="0" width="409" height="70">
<path d="M409 0H0V69.3942H409V0Z" fill="white"/>
</mask>
<g mask="url(#mask10_229_49)">
<path d="M396.482 16.6716C392.025 16.6795 387.799 18.7325 385.019 22.2314L384.244 23.206L383.637 22.1116C381.656 18.5009 378.261 16.6796 373.516 16.6796C368.555 16.6796 365.224 19.4435 363.675 21.0971L362.668 22.1915L362.277 20.7456C361.717 18.6686 359.864 17.5263 357.068 17.5263H352.579L352.531 54.8316H362.724V38.3597C362.724 36.9139 362.9 35.492 363.259 33.9981C364.234 30.02 366.91 25.7383 371.407 26.1616C374.171 26.4332 375.529 28.5741 375.529 32.704V54.8236H385.794V38.3518C385.794 36.5464 385.962 35.1884 386.369 33.8464C387.184 30.0439 389.988 26.1457 394.326 26.1457C397.465 26.1457 398.631 27.9191 398.631 32.704V49.3676C398.631 53.1301 400.309 54.8236 404.079 54.8236H408.872L408.88 31.0105C408.912 21.4885 404.718 16.6716 396.482 16.6716ZM303.714 41.8746C303.683 41.9066 299.297 46.5398 293.521 46.5398C288.257 46.5398 282.945 43.3125 282.945 36.1071C282.945 29.8842 287.067 25.5306 292.97 25.5306C294.887 25.5306 297.06 26.2176 297.404 27.3679L297.452 27.5596C297.899 29.1972 299.393 30.3235 301.078 30.3155L306.662 30.3235V25.4347C306.662 18.9882 298.474 16.6636 292.954 16.6636C281.164 16.6636 272.616 24.8675 272.616 36.171C272.616 47.4664 281.076 55.6704 292.739 55.6704C302.86 55.6704 308.356 49.0161 308.412 48.9602L308.699 48.6007L304.274 41.2595L303.714 41.8746Z" fill="#99A2B2"/>
</g>
</g>
</svg>
