<svg width="388" height="116" viewBox="0 0 388 116" fill="none" xmlns="http://www.w3.org/2000/svg">
<path d="M58.1854 0C26.0512 0 0 25.9679 0 58.0003C0 90.0341 26.0512 116 58.1854 116C90.3231 116 116.371 90.0341 116.371 58.0003C116.371 25.97 90.3231 0.00277042 58.1847 0.00277042L58.1854 0ZM84.8688 83.6531C83.8266 85.357 81.5893 85.8972 79.8801 84.8514C66.2188 76.5331 49.0208 74.6492 28.7672 79.262C26.8155 79.7053 24.87 78.4863 24.4253 76.5401C23.9785 74.5938 25.1965 72.6545 27.1531 72.2113C49.3175 67.1635 68.3296 69.3369 83.6668 78.6802C85.376 79.7261 85.918 81.9493 84.8688 83.6531ZM91.9906 67.8603C90.6774 69.988 87.8843 70.6598 85.7512 69.3508C70.1111 59.7679 46.2701 56.9926 27.7708 62.5903C25.3716 63.3126 22.8377 61.9648 22.1095 59.5774C21.3869 57.1858 22.7397 54.6647 25.1347 53.9375C46.2659 47.5461 72.5359 50.6421 90.4968 61.6442C92.6298 62.9532 93.3038 65.7368 91.9906 67.8603ZM92.602 51.415C73.8491 40.3118 42.9093 39.2909 25.0048 44.7078C22.1297 45.577 19.0892 43.9591 18.2179 41.0931C17.3466 38.2257 18.9683 35.1969 21.8455 34.3256C42.3986 28.106 76.5658 29.3077 98.1563 42.0842C100.748 43.6142 101.596 46.9436 100.06 49.518C98.5315 52.0959 95.1825 52.9457 92.6048 51.415H92.602ZM158.303 53.5427C148.256 51.1546 146.471 49.4785 146.471 45.9566C146.471 42.6293 149.611 40.3901 154.287 40.3901C158.817 40.3901 163.306 42.0905 168.017 45.5909C168.156 45.6969 168.336 45.7391 168.51 45.7114C168.691 45.6851 168.843 45.5888 168.948 45.4441L173.853 38.5512C174.054 38.2673 173.999 37.8759 173.728 37.6592C168.121 33.1759 161.812 30.9963 154.433 30.9963C143.587 30.9963 136.007 37.4853 136.007 46.7697C136.007 56.7259 142.545 60.2513 153.842 62.9726C163.452 65.1799 165.078 67.0292 165.078 70.3343C165.078 73.9982 161.798 76.2769 156.517 76.2769C150.653 76.2769 145.866 74.3029 140.516 69.6902C140.384 69.5724 140.203 69.5239 140.037 69.5309C139.856 69.5447 139.696 69.6278 139.585 69.7594L134.082 76.2838C133.853 76.5608 133.881 76.9626 134.145 77.198C140.37 82.7389 148.027 85.6617 156.295 85.6617C167.982 85.6617 175.534 79.2966 175.534 69.4408C175.555 61.1247 170.56 56.5189 158.324 53.5517L158.303 53.5427ZM201.979 43.6661C196.914 43.6661 192.759 45.6553 189.326 49.7313V45.1435C189.326 44.7812 189.035 44.4862 188.673 44.4862H179.675C179.314 44.4862 179.022 44.7812 179.022 45.1435V96.1201C179.022 96.4802 179.314 96.7781 179.675 96.7781H188.673C189.035 96.7781 189.326 96.4802 189.326 96.1201V80.0308C192.759 83.8609 196.914 85.7379 201.979 85.7379C211.394 85.7379 220.926 78.514 220.926 64.7041C220.94 50.8914 211.407 43.6654 201.986 43.6654L201.979 43.6661ZM210.462 64.7041C210.462 71.7334 206.12 76.644 199.894 76.644C193.745 76.644 189.104 71.5117 189.104 64.7041C189.104 57.8958 193.745 52.7649 199.894 52.7649C206.016 52.7642 210.462 57.7849 210.462 64.7041ZM245.349 43.6661C233.224 43.6661 223.726 52.972 223.726 64.8544C223.726 76.6093 233.162 85.8141 245.203 85.8141C257.369 85.8141 266.895 76.5401 266.895 64.7041C266.895 52.9083 257.432 43.6675 245.349 43.6675V43.6661ZM245.349 76.7132C238.901 76.7132 234.037 71.5464 234.037 64.7006C234.037 57.8237 238.734 52.8335 245.203 52.8335C251.692 52.8335 256.584 57.9983 256.584 64.8509C256.584 71.7264 251.859 76.7132 245.349 76.7132ZM292.783 44.4862H282.882V34.3977C282.882 34.0361 282.591 33.7411 282.229 33.7411H273.231C272.87 33.7411 272.571 34.0361 272.571 34.3977V44.4862H268.25C267.888 44.4862 267.597 44.7812 267.597 45.1435V52.8501C267.597 53.2117 267.888 53.5074 268.25 53.5074H272.571V73.451C272.571 81.5061 276.594 85.5924 284.536 85.5924C287.76 85.5924 290.435 84.9275 292.957 83.5008C293.166 83.39 293.291 83.1683 293.291 82.9328V75.5912C293.291 75.3696 293.172 75.1548 292.978 75.0371C292.783 74.9124 292.54 74.9055 292.339 75.0094C290.609 75.8752 288.934 76.2769 287.058 76.2769C284.175 76.2769 282.882 74.9678 282.882 72.045V53.5109H292.783C293.145 53.5109 293.437 53.2158 293.437 52.8536V45.1476C293.45 44.7854 293.159 44.4903 292.79 44.4903L292.783 44.4862ZM327.274 44.5257V43.2866C327.274 39.6414 328.677 38.0158 331.818 38.0158C333.694 38.0158 335.201 38.3871 336.89 38.9481C337.098 39.0132 337.314 38.9806 337.48 38.8567C337.654 38.7327 337.751 38.5339 337.751 38.3234V30.767C337.751 30.4782 337.571 30.2226 337.286 30.1374C335.507 29.609 333.228 29.0667 329.81 29.0667C321.507 29.0667 317.109 33.7307 317.109 42.5497V44.4474H312.787C312.426 44.4474 312.127 44.7425 312.127 45.104V52.8501C312.127 53.2117 312.426 53.5074 312.787 53.5074H317.109V84.2626C317.109 84.6297 317.407 84.9206 317.769 84.9206H326.76C327.128 84.9206 327.42 84.6297 327.42 84.2626V53.5095H335.82L348.688 84.2626C347.229 87.4902 345.79 88.1343 343.831 88.1343C342.247 88.1343 340.572 87.6633 338.87 86.7283C338.71 86.6452 338.516 86.6314 338.349 86.6798C338.175 86.7422 338.029 86.8668 337.96 87.0331L334.91 93.7029C334.764 94.0215 334.889 94.3886 335.195 94.5548C338.377 96.2725 341.246 97.0066 344.797 97.0066C351.439 97.0066 355.115 93.9176 358.346 85.6202L373.951 45.4233C374.034 45.221 374.007 44.9925 373.881 44.8131C373.763 44.6351 373.562 44.5277 373.346 44.5277H363.98C363.696 44.5277 363.445 44.7057 363.355 44.9682L353.76 72.2805L343.254 44.9502C343.157 44.696 342.914 44.5277 342.643 44.5277H327.274V44.5257ZM307.277 44.4862H298.279C297.918 44.4862 297.619 44.7812 297.619 45.1435V84.2626C297.619 84.6297 297.918 84.9206 298.279 84.9206H307.277C307.638 84.9206 307.937 84.6297 307.937 84.2626V45.1462C307.937 44.784 307.645 44.489 307.277 44.489V44.4862ZM302.83 26.673C299.266 26.673 296.376 29.5487 296.376 33.1011C296.376 36.6556 299.266 39.5347 302.83 39.5347C306.395 39.5347 309.278 36.6556 309.278 33.1011C309.278 29.5494 306.388 26.673 302.83 26.673ZM381.636 57.0646C378.078 57.0646 375.306 54.2146 375.306 50.7536C375.306 47.2926 378.113 44.41 381.67 44.41C385.228 44.41 388 47.2594 388 50.7176C388 54.1785 385.193 57.0646 381.636 57.0646ZM381.67 45.0375C378.426 45.0375 375.973 47.6071 375.973 50.7536C375.973 53.8987 378.412 56.4337 381.636 56.4337C384.88 56.4337 387.333 53.8662 387.333 50.7176C387.333 47.5724 384.894 45.0375 381.67 45.0375ZM383.074 51.3665L384.866 53.8655H383.352L381.74 51.5729H380.357V53.8655H379.093V47.2414H382.052C383.602 47.2414 384.616 48.0289 384.616 49.3545C384.623 50.4405 383.991 51.1041 383.081 51.3665H383.074ZM382.004 48.3779H380.357V50.4731H382.004C382.824 50.4731 383.317 50.0721 383.317 49.4245C383.317 48.743 382.824 48.3779 382.004 48.3779Z" fill="#99A2B3"/>
</svg>
