<svg width="396" height="64" viewBox="0 0 396 64" fill="none" xmlns="http://www.w3.org/2000/svg">
<path d="M43.4626 54.8324C44.3751 54.8324 45.244 54.6151 46.0696 54.1372L55.5848 48.6627C57.4966 47.5764 59.7125 47.0985 61.9284 47.3592C73.4857 48.7061 81.5672 50.8785 83.9569 51.5737C84.4348 51.7041 84.9996 51.5303 85.3038 51.1392C85.6948 50.6613 86.1728 49.8792 86.5638 48.7496C86.9114 47.6633 86.9548 46.7509 86.9114 46.0992C86.8679 45.5778 86.5203 45.0999 85.999 44.9695C82.2624 43.8833 65.7084 39.4081 43.4626 39.4081C21.2169 39.4081 4.66292 43.8833 0.926326 44.9695C0.404941 45.0999 0.0573522 45.5778 0.0139035 46.0992C-0.0295453 46.7075 0.0139048 47.6199 0.361495 48.7496C0.709085 49.8792 1.23047 50.6613 1.62151 51.1392C1.92565 51.5303 2.49048 51.7041 2.96842 51.5737C5.3581 50.8785 13.483 48.7061 24.9969 47.3592C27.2128 47.0985 29.4287 47.5764 31.3404 48.6627L40.8557 54.1372C41.6812 54.6151 42.5937 54.8324 43.4626 54.8324Z" fill="#99A2B3"/>
<path d="M27.6039 24.0271C28.1253 24.9395 28.9508 25.5478 29.9067 25.8085C30.8626 26.0692 31.8619 25.9388 32.7743 25.4174C33.6867 24.896 34.295 24.0705 34.5557 23.1146C34.8164 22.1588 34.686 21.1594 34.1647 20.247L25.6053 5.431C25.3446 4.95306 24.7797 4.77927 24.2583 4.82272C23.5632 4.86617 22.6073 5.21376 21.4776 5.86549C20.348 6.51722 19.5659 7.16895 19.1748 7.73378C18.8707 8.16827 18.7838 8.7331 19.0445 9.21104L27.6039 24.0271Z" fill="#99A2B3"/>
<path d="M19.783 34.6287C20.6955 35.15 21.7382 35.2369 22.6506 35.0197C23.6065 34.759 24.432 34.1507 24.9534 33.2383C25.4748 32.3259 25.5617 31.2831 25.3445 30.3707C25.1272 29.4582 24.4755 28.5893 23.5631 28.0679L8.74705 19.5085C8.26911 19.2478 7.70428 19.3347 7.2698 19.6388C6.70496 20.0299 6.05323 20.812 5.4015 21.9416C4.74977 23.0713 4.40218 24.0272 4.35873 24.7223C4.31528 25.2872 4.53252 25.8086 4.96701 26.0692L19.783 34.6287Z" fill="#99A2B3"/>
<path d="M47.2427 18.7699C47.2427 19.8126 46.8082 20.7685 46.1565 21.4637C45.4613 22.1589 44.5489 22.5499 43.4627 22.5499C42.4199 22.5499 41.464 22.1154 40.7688 21.4637C40.0737 20.7685 39.6826 19.8561 39.6826 18.7699V1.6945C39.6826 1.12966 40.0302 0.695179 40.5516 0.477936C41.1599 0.173794 42.1592 0 43.4627 0C44.7661 0 45.7654 0.173794 46.3737 0.477936C46.8517 0.738628 47.2427 1.12966 47.2427 1.6945V18.7699Z" fill="#99A2B3"/>
<path d="M59.3214 24.0271C58.8 24.9395 57.9745 25.5478 57.0186 25.8085C56.0627 26.0692 55.0634 25.9388 54.151 25.4174C53.2386 24.896 52.6303 24.0705 52.3696 23.1146C52.1089 22.1588 52.2393 21.1594 52.7606 20.247L61.32 5.431C61.5807 4.95306 62.1456 4.77927 62.667 4.82272C63.3621 4.86617 64.318 5.21376 65.4477 5.86549C66.5773 6.51722 67.3594 7.16895 67.7505 7.73378C68.0546 8.16827 68.1415 8.7331 67.8808 9.21104L59.3214 24.0271Z" fill="#99A2B3"/>
<path d="M67.1422 34.6287C66.2298 35.15 65.187 35.2369 64.2746 35.0197C63.3187 34.759 62.4932 34.1507 61.9718 33.2383C61.4504 32.3259 61.3635 31.2831 61.5808 30.3707C61.8415 29.4148 62.4497 28.5893 63.3622 28.0679L78.1782 19.5085C78.6561 19.2478 79.2209 19.3347 79.6554 19.6388C80.2203 20.0299 80.872 20.812 81.5237 21.9416C82.1755 23.0713 82.5231 24.0272 82.5665 24.7223C82.61 25.2872 82.3927 25.8086 81.9582 26.0692L67.1422 34.6287Z" fill="#99A2B3"/>
<path d="M161.643 22.854H168.769C169.03 22.854 169.247 23.0278 169.377 23.245L176.459 41.4066L183.324 23.245C183.411 22.9844 183.672 22.854 183.932 22.854H190.928C191.406 22.854 191.71 23.3319 191.493 23.723L174.113 63.6089C174.026 63.8262 173.765 64 173.548 64H167.378C166.944 64 166.596 63.522 166.814 63.131L172.766 49.1839L161.122 23.723C160.861 23.3319 161.165 22.854 161.643 22.854Z" fill="#99A2B3"/>
<path d="M266.833 26.8948V23.5058C266.833 23.1582 267.137 22.8541 267.484 22.8541H273.784C274.132 22.8541 274.436 23.1582 274.436 23.5058V50.5744C274.436 50.922 274.132 51.2261 273.784 51.2261H267.484C267.137 51.2261 266.833 50.922 266.833 50.5744V47.0116C265.486 49.0971 262.531 51.8344 257.708 51.8344C248.497 51.8344 243.718 44.7957 243.718 36.9315C243.718 26.6776 250.843 22.2892 257.491 22.2892C261.879 22.2458 264.921 24.3313 266.833 26.8948ZM251.321 36.9749C251.321 41.8412 254.319 45.5778 259.142 45.5778C263.965 45.5778 267.05 42.3191 267.05 37.3225C267.05 32.3259 264.052 28.5024 258.925 28.5024C254.102 28.5024 251.321 32.239 251.321 36.9749Z" fill="#99A2B3"/>
<path d="M280.128 50.5743V23.5057C280.128 23.1582 280.432 22.854 280.779 22.854H287.079C287.427 22.854 287.731 23.1582 287.731 23.5057V27.1989C289.208 24.6354 291.989 22.2892 296.725 22.2892C301.591 22.2892 307.022 24.6789 307.022 35.6714V50.5743C307.022 50.9219 306.718 51.226 306.371 51.226H300.071C299.723 51.226 299.419 50.9219 299.419 50.5743V35.8017C299.419 33.1514 298.767 28.5893 294.075 28.5893C289.382 28.5893 287.731 32.7169 287.731 36.5404V50.5743C287.731 50.9219 287.427 51.226 287.079 51.226H280.779C280.388 51.1826 280.128 50.9219 280.128 50.5743Z" fill="#99A2B3"/>
<path d="M312.41 50.5743V23.5057C312.41 23.1582 312.715 22.854 313.062 22.854H319.362C319.71 22.854 320.014 23.1582 320.014 23.5057V27.1989C321.491 24.6354 324.272 22.2892 329.008 22.2892C333.874 22.2892 339.305 24.6789 339.305 35.6714V50.5743C339.305 50.9219 339.001 51.226 338.653 51.226H332.353C332.006 51.226 331.702 50.9219 331.702 50.5743V35.8017C331.702 33.1514 331.05 28.5893 326.357 28.5893C321.665 28.5893 320.014 32.7169 320.014 36.5404V50.5743C320.014 50.9219 319.71 51.226 319.362 51.226H313.062C312.715 51.1826 312.41 50.9219 312.41 50.5743Z" fill="#99A2B3"/>
<path d="M378.583 22.854H384.709C385.057 22.854 385.361 23.1582 385.361 23.5058V29.1107C386.577 23.5492 391.357 21.6375 394.833 22.463C395.137 22.5065 395.311 22.7671 395.311 23.0713V29.241C395.311 29.6321 394.963 29.9362 394.529 29.8493C388.098 28.5893 385.491 32.0652 385.491 36.9314C385.491 40.4073 385.491 48.2716 385.491 50.5743C385.491 50.9219 385.187 51.2261 384.839 51.2261H378.539C378.192 51.2261 377.888 50.9219 377.888 50.5743V23.5058C377.931 23.1582 378.235 22.854 378.583 22.854Z" fill="#99A2B3"/>
<path d="M119.889 29.0239C117.934 28.3722 116.891 27.9811 115.327 27.4598C113.719 26.8949 110.982 25.3308 110.982 22.8107C110.982 20.2907 112.72 18.6831 116.239 18.6831C119.454 18.6831 121.236 20.2473 122.409 22.7673C122.583 23.1149 122.974 23.2452 123.321 23.0714L128.492 20.0735C128.752 19.8997 128.883 19.5521 128.752 19.248C127.188 15.8155 123.538 11.6879 116.326 11.6879C108.288 11.6879 103.248 16.4672 103.248 22.7673C103.248 29.0239 107.376 32.2826 112.98 34.1943C115.023 34.8895 115.848 35.1936 117.586 35.7585C120.888 36.8881 122.409 38.3654 122.409 40.4075C122.409 42.4496 121.105 44.8827 115.978 44.8827C111.286 44.8827 109.635 42.4061 108.679 40.0599C108.549 39.7123 108.114 39.5385 107.767 39.7558L102.336 42.8841C102.075 43.0579 101.944 43.362 102.075 43.6661C104.16 48.7931 109.852 51.8345 116.239 51.8345C123.756 51.8345 130.099 48.011 130.099 40.2771C130.099 32.5433 121.844 29.6756 119.889 29.0239Z" fill="#99A2B3"/>
<path d="M161.382 43.7964C161.208 43.4922 160.774 43.3619 160.47 43.5791C158.037 45.3605 155.169 45.404 152.997 42.0584C151.172 39.2342 148.956 35.7583 148.956 35.7583L158.515 23.8968C158.862 23.4623 158.558 22.8541 158.037 22.8541H150.564C150.346 22.8541 150.172 22.941 150.042 23.1148L141.787 34.4549V11.6443C141.787 11.2967 141.483 10.9926 141.135 10.9926H134.835C134.487 10.9926 134.183 11.2967 134.183 11.6443V50.5744C134.183 50.922 134.487 51.2261 134.835 51.2261H141.179C141.526 51.2261 141.83 50.922 141.83 50.5744V37.9308C141.83 37.9308 146.045 44.5784 147.652 47.055C149.825 50.444 152.866 51.8344 156.168 51.8344C159.297 51.8344 161.295 51.0089 163.685 48.6626C163.902 48.4454 163.946 48.1412 163.815 47.8805L161.382 43.7964Z" fill="#99A2B3"/>
<path d="M206.613 34.8459C204.614 34.1072 203.919 33.8465 202.398 33.2817C200.877 32.7169 199.53 31.8914 199.53 30.6748C199.53 29.4582 200.66 28.1113 202.963 28.1113C204.962 28.1113 206.178 28.8934 206.873 30.2838C207.047 30.6313 207.438 30.7182 207.742 30.5444L212.174 27.981C212.478 27.8072 212.565 27.4161 212.391 27.112C211.175 24.983 208.785 22.2892 203.006 22.2892C195.924 22.2892 192.275 26.3734 192.275 30.892C192.275 35.4107 195.968 37.5397 199.357 38.8866C203.18 40.4508 203.441 40.5377 203.919 40.7114C205.092 41.1894 206.526 41.928 206.526 43.2749C206.526 44.6218 204.962 45.8384 202.572 45.8384C200.356 45.8384 197.836 44.926 196.793 42.3625C196.663 42.0149 196.228 41.8411 195.881 42.0584L191.406 44.6218C191.145 44.7956 191.015 45.0998 191.145 45.4039C192.448 48.7929 196.315 51.7909 202.572 51.7909C209.35 51.7909 213.869 48.1846 213.869 43.1011C213.869 38.0176 210.393 36.2362 206.613 34.8459Z" fill="#99A2B3"/>
<path d="M232.074 29.0239C234.898 29.0239 236.983 29.8928 238.938 31.2832C239.243 31.5004 239.677 31.4135 239.851 31.1094L242.458 26.5907C242.632 26.2866 242.545 25.939 242.241 25.7652C239.547 23.9404 236.201 22.2458 231.683 22.2458C227.207 22.2458 223.08 23.4624 220.125 26.4604C217.171 29.4149 215.824 32.9342 215.824 37.1053C215.824 42.1454 217.909 45.3606 220.169 47.6199C222.428 49.8792 226.512 51.791 231.726 51.791C236.418 51.791 239.894 49.8358 242.284 48.2716C242.545 48.0979 242.632 47.7068 242.458 47.4461L239.894 42.9709C239.721 42.6668 239.286 42.5364 238.982 42.7537C237.287 43.9702 234.854 45.013 232.117 45.013C229.032 45.013 223.427 43.275 223.427 37.0184C223.427 30.7618 228.989 29.0239 232.074 29.0239Z" fill="#99A2B3"/>
<path d="M359.9 45.5344C357.38 45.5344 354.99 44.9261 353.252 43.5357C351.514 42.1454 350.689 40.7116 350.689 39.0171H373.195C373.543 39.0171 373.847 38.7129 373.847 38.3653C373.717 31.6742 371.544 28.5459 369.459 26.4169C367.286 24.2445 363.593 22.2458 358.727 22.2458C353.861 22.2458 350.124 24.0272 347.56 26.5473C345.04 29.0673 343.129 32.2825 343.129 37.1488C343.129 42.015 345.084 45.2302 347.474 47.6199C349.863 50.0096 353.774 51.791 359.379 51.791C364.679 51.791 369.154 49.9227 372.37 46.2296C372.63 45.9254 372.543 45.4475 372.196 45.2737L367.721 42.6668C367.503 42.5364 367.199 42.5364 366.982 42.7537C364.766 44.8392 361.942 45.5344 359.9 45.5344ZM358.683 28.3287C362.29 28.3287 365.592 30.5011 366.113 34.4115H350.949C351.949 30.197 355.077 28.3287 358.683 28.3287Z" fill="#99A2B3"/>
</svg>
