<svg width="402" height="126" viewBox="0 0 402 126" fill="none" xmlns="http://www.w3.org/2000/svg">
<path d="M211.805 31.6594C211.805 36.2004 208.163 39.8568 203.642 39.8568C199.122 39.8568 195.482 36.2004 195.482 31.6594C195.482 27.1185 198.998 23.462 203.642 23.462C208.29 23.588 211.805 27.2457 211.805 31.6594ZM178.157 48.1827V50.2012C178.157 50.2012 174.266 45.1537 165.98 45.1537C152.296 45.1537 141.623 55.6229 141.623 70.1264C141.623 84.5053 152.171 95.0991 165.98 95.0991C174.392 95.0991 178.157 89.9282 178.157 89.9282V92.0714C178.157 93.0807 178.912 93.8354 179.915 93.8354H190.083V46.4112H179.915C178.912 46.415 178.157 47.2995 178.157 48.1827ZM178.157 78.5771C176.275 81.3528 172.508 83.7493 167.989 83.7493C159.954 83.7493 153.801 78.7043 153.801 70.1264C153.801 61.5498 159.954 56.5048 167.989 56.5048C172.384 56.5048 176.401 59.0273 178.157 61.6758V78.5771ZM197.617 46.415H209.669V93.8391H197.617V46.415ZM377.653 45.1525C369.367 45.1525 365.474 50.1999 365.474 50.1999V23.588H353.422V93.8391H363.592C364.597 93.8391 365.348 92.9559 365.348 92.0727V89.9295C365.348 89.9295 369.241 95.1004 377.525 95.1004C391.211 95.1004 401.882 84.509 401.882 70.1302C401.882 55.7514 391.211 45.1525 377.653 45.1525ZM375.644 83.622C370.997 83.622 367.357 81.2281 365.474 78.4511V61.5498C367.357 59.0273 371.375 56.3788 375.644 56.3788C383.679 56.3788 389.83 61.4238 389.83 70.0004C389.83 78.5771 383.68 83.622 375.644 83.622ZM347.146 65.714V93.9652H335.092V67.1C335.092 59.2818 332.581 56.1269 325.805 56.1269C322.166 56.1269 318.398 58.0193 316.009 60.795V93.8404H303.959V46.4162H313.498C314.502 46.4162 315.256 47.2995 315.256 48.1827V50.2012C318.772 46.5422 323.416 45.1537 328.06 45.1537C333.334 45.1537 337.729 46.6695 341.245 49.6959C345.512 53.2277 347.146 57.7674 347.146 65.714ZM274.702 45.1525C266.418 45.1525 262.525 50.1999 262.525 50.1999V23.588H250.473V93.8391H260.641C261.646 93.8391 262.4 92.9559 262.4 92.0727V89.9295C262.4 89.9295 266.293 95.1004 274.577 95.1004C288.263 95.1004 298.934 84.509 298.934 70.1302C299.059 55.7501 288.388 45.1525 274.702 45.1525ZM272.693 83.622C268.049 83.622 264.409 81.2281 262.525 78.4511V61.5498C264.409 59.0273 268.426 56.3788 272.693 56.3788C280.73 56.3788 286.881 61.4238 286.881 70.0004C286.881 78.5771 280.73 83.622 272.693 83.622ZM240.052 45.1525C243.692 45.1525 245.576 45.785 245.576 45.785V57.0088C245.576 57.0088 235.532 53.6031 229.256 60.7938V93.9639H217.202V46.415H227.372C228.377 46.415 229.128 47.2982 229.128 48.1815V50.1999C231.391 47.5502 236.287 45.1525 240.052 45.1525ZM114.883 89.5502C114.256 88.037 113.627 86.3978 113 85.0093C111.994 82.7401 110.99 80.5943 110.113 78.5771L109.988 78.4511C101.323 59.5313 92.0347 40.3621 82.2406 21.4448L81.8643 20.6863C80.8342 18.7238 79.8303 16.7476 78.8529 14.7581C77.5962 12.4864 76.342 10.0924 74.3327 7.82066C70.3155 2.77572 64.5398 0 58.3892 0C52.1106 0 46.4616 2.77574 42.3202 7.56742C40.4363 9.83664 39.0542 12.2331 37.8 14.5049C36.8201 16.4931 35.8163 18.4693 34.7886 20.433L34.4111 21.1915C24.7436 40.1088 15.3282 59.2793 6.66534 78.1978L6.53869 78.4486C5.66074 80.4696 4.65485 82.6128 3.65022 84.8807C3.02311 86.2692 2.39601 87.7824 1.7689 89.4217C0.135912 94.0874 -0.367052 98.5023 0.262564 103.045C1.64345 112.504 7.91955 120.447 16.5837 123.982C19.8484 125.37 23.2385 126 26.7528 126C27.7575 126 29.0117 125.874 30.0176 125.747C34.1615 125.243 38.4296 123.857 42.5735 121.46C47.7208 118.559 52.6173 114.398 58.1408 108.344C63.6644 114.398 68.6863 118.559 73.7082 121.46C77.8533 123.857 82.1201 125.243 86.2628 125.747C87.2674 125.875 88.5242 126 89.5288 126C93.0444 126 96.5587 125.37 99.6968 123.982C108.486 120.447 114.637 112.378 116.019 103.045C117.016 98.6308 116.514 94.2184 114.883 89.5502ZM58.2625 96.1084C51.4822 87.5317 47.0874 79.4603 45.5824 72.6514C44.9553 69.7497 44.8286 67.2272 45.2061 64.9568C45.4557 62.9383 46.2107 61.1718 47.2154 59.6585C49.6009 56.2554 53.6182 54.1096 58.2638 54.1096C62.9106 54.1096 67.0533 56.1281 69.3134 59.6585C70.318 61.1718 71.0705 62.9395 71.3239 64.9568C71.6989 67.2285 71.5735 69.8757 70.9464 72.6514C69.4351 79.3343 65.0403 87.407 58.2625 96.1084ZM108.353 102.037C107.475 108.595 103.081 114.272 96.9299 116.795C93.9173 118.055 90.6513 118.434 87.3891 118.055C84.2511 117.675 81.1105 116.666 77.8483 114.776C73.3281 112.251 68.8092 108.344 63.5352 102.541C71.8206 92.3259 76.8425 82.9908 78.7263 74.6687C79.6055 70.7577 79.7322 67.2272 79.3534 63.9463C78.853 60.7938 77.7216 57.8921 75.9645 55.3696C72.0701 49.6922 65.5407 46.415 58.2612 46.415C50.9818 46.415 44.4523 49.8207 40.5605 55.3696C38.8033 57.8921 37.672 60.7938 37.1703 63.9463C36.6687 67.2272 36.7928 70.8837 37.7975 74.6687C39.68 82.9908 44.8274 92.4507 52.9873 102.667C47.84 108.469 43.1943 112.38 38.6742 114.902C35.4094 116.795 32.2727 117.804 29.1346 118.181C25.7457 118.56 22.4797 118.055 19.5925 116.921C13.4419 114.398 9.0471 108.721 8.16915 102.163C7.79289 99.0101 8.04248 95.8576 9.2992 92.3259C9.67421 91.0634 10.3038 89.8035 10.9309 88.2902C11.8101 86.2718 12.8123 84.126 13.8181 81.9828L13.9448 81.7321C22.6064 62.9383 31.8964 43.7677 41.5639 25.1025L41.9401 24.344C42.946 22.454 43.9507 20.4355 44.954 18.5431C45.9587 16.5246 47.0874 14.6321 48.4696 12.9916C51.1059 9.96767 54.6202 8.32592 58.5133 8.32592C62.4064 8.32592 65.9207 9.96767 68.5571 12.9916C69.9393 14.6359 71.068 16.5284 72.0726 18.5431C73.0785 20.4355 74.0832 22.454 75.0853 24.344L75.4628 25.1025C84.9829 43.8453 94.1495 62.7672 102.958 81.8581V81.9841C103.964 84.0051 104.842 86.273 105.846 88.294C106.473 89.8047 107.102 91.0647 107.478 92.3272C108.48 95.6032 108.856 98.7581 108.353 102.037Z" fill="#99A2B3"/>
</svg>
