<svg width="299" height="85" viewBox="0 0 299 85" fill="none" xmlns="http://www.w3.org/2000/svg">
<g clip-path="url(#clip0_229_108)">
<path d="M143.72 66.4907H134.425C134.366 66.4907 134.366 66.4907 134.337 66.4611L126.336 56.6582L118.335 66.4611C118.306 66.4907 118.276 66.4907 118.247 66.4907H110.805C110.746 66.4907 110.717 66.4611 110.687 66.4316C110.687 66.4021 110.687 66.343 110.717 66.3135L122.512 51.7863L110.864 37.4066C110.834 37.3476 110.834 37.3181 110.834 37.259C110.864 37.2295 110.893 37.2 110.923 37.2H120.218C120.247 37.2 120.277 37.2295 120.306 37.259L127.336 45.999L134.484 37.259C134.513 37.2295 134.543 37.2 134.572 37.2H142.132C142.161 37.2 142.22 37.2295 142.249 37.259C142.279 37.3181 142.249 37.3476 142.22 37.4066L131.189 50.7233L143.838 66.3135C143.867 66.343 143.867 66.4021 143.867 66.4316C143.808 66.4907 143.779 66.4907 143.72 66.4907Z" fill="#99A2B3"/>
<path d="M193.99 42.3375C189.872 42.3375 187.077 44.8473 186.254 49.1878H200.255V48.8925C200.255 45.4379 197.696 42.3375 193.99 42.3375ZM207.462 53.6759C207.432 53.7054 207.403 53.7349 207.373 53.7349H186.107C186.548 58.6955 189.754 61.5301 194.96 61.5301C198.167 61.5301 201.579 60.4376 206.373 57.8687C206.461 57.8097 206.55 57.8982 206.55 57.9868V64.5418C206.55 64.6009 206.52 64.6304 206.491 64.6304C202.02 66.5201 197.519 67.8193 193.99 67.8193C184.842 67.8193 178.194 61.1167 178.194 51.9043C178.194 42.6919 184.842 35.9893 193.99 35.9893C202.343 35.9893 207.697 41.6289 207.697 49.3945C207.697 50.6641 207.491 53.5873 207.462 53.6759Z" fill="#99A2B3"/>
<path d="M250.642 31.1174C248.024 31.1174 245.906 29.021 245.906 26.4522C245.906 23.7947 248.024 21.6393 250.642 21.6393C253.26 21.6393 255.378 23.7947 255.378 26.4522C255.378 29.021 253.26 31.1174 250.642 31.1174ZM246.818 66.4907C246.73 66.4907 246.701 66.4612 246.701 66.3726V37.2886C246.701 37.2295 246.73 37.1704 246.789 37.1704H254.466C254.525 37.1704 254.554 37.2295 254.554 37.2886V66.3726C254.554 66.4612 254.496 66.4907 254.437 66.4907H246.818Z" fill="#99A2B3"/>
<path d="M157.78 62.1206C156.398 62.1206 154.986 61.9139 153.339 61.5005L153.368 42.8395C155.28 42.2194 156.927 41.9537 158.574 41.9537C163.898 41.9537 167.458 45.8808 167.458 51.7566C167.458 58.0459 163.663 62.1206 157.78 62.1206ZM159.869 35.9893C157.692 35.9893 155.515 36.3731 153.221 37.1703H145.573C145.514 37.1703 145.455 37.2294 145.455 37.2884V84.9744C147.75 84.6496 150.574 83.8229 153.339 81.8741V67.3764C155.221 67.6421 156.78 67.8193 158.28 67.8193C168.752 67.8193 175.517 61.5301 175.517 51.7862C175.517 42.4852 169.075 35.9893 159.869 35.9893Z" fill="#99A2B3"/>
<path d="M232.846 59.6994C230.464 60.9691 228.317 61.5596 226.316 61.5596C221.581 61.5596 218.727 58.1935 218.727 52.5539C218.727 46.058 222.345 41.8356 227.964 41.8356C229.523 41.8356 231.023 42.2195 232.846 43.0462V59.6994ZM232.846 21.7868V36.9932C230.611 36.3436 228.64 36.0483 226.64 36.0483C217.521 36.0483 210.668 42.9281 210.668 52.0815C210.668 61.1758 216.727 67.7898 225.081 67.7898C227.964 67.7898 230.67 67.0516 233.846 65.4276V68.0555C235.935 67.6422 238.347 66.8154 240.73 65.1028V18.657C238.406 18.9818 235.641 19.779 232.846 21.7868Z" fill="#99A2B3"/>
<path d="M281.175 59.6404C278.851 60.9691 276.88 61.6187 275.115 61.6187C270.027 61.6187 266.997 58.2526 266.997 52.6129C266.997 46.2056 270.585 41.8947 275.91 41.8947C277.321 41.8947 279.057 42.4557 281.175 43.5777V59.6404ZM289.058 36.816C289.058 36.6389 288.911 36.4912 288.734 36.4912H282.528C282.351 36.4912 282.175 36.6389 282.175 36.816V37.879H282.028C279.175 36.6094 276.704 36.0483 274.321 36.0483C265.732 36.0483 258.996 43.1939 258.996 52.3472C258.996 61.5891 265.026 67.7898 273.998 67.7898C276.38 67.7898 279.469 67.6126 282.351 64.3056V68.0555C284.381 67.6126 286.793 66.7563 289.058 65.1028V36.816Z" fill="#99A2B3"/>
<path d="M89.5677 59.227H108.834C108.54 61.3825 107.805 63.9218 106.158 66.4906H86.1261C83.6847 66.4906 81.6551 64.5714 81.4198 62.1797C81.4198 62.1502 81.3904 62.1207 81.3904 62.0616V23.9128C81.3904 23.8833 81.4198 23.8537 81.4198 23.8242C81.6551 21.403 83.6847 19.4838 86.1261 19.4838H108.805C108.511 21.6392 107.775 24.2376 106.099 26.8064H89.5677V37.1999H105.952C106.01 37.1999 106.069 37.259 106.069 37.318V44.5226C106.069 44.5817 106.01 44.6407 105.952 44.6407H89.5677V59.227Z" fill="#99A2B3"/>
<path d="M65.4476 67.1107C63.5356 67.1107 62.3591 65.6048 62.3591 63.7741C62.3591 61.8253 63.7121 60.4376 65.4476 60.4376C67.1536 60.4376 68.5067 61.7958 68.5067 63.7741C68.5067 65.7524 67.1536 67.1107 65.4476 67.1107ZM65.4476 60.0833C63.5062 60.0833 61.8296 61.5596 61.8296 63.7741C61.8296 65.8705 63.3297 67.465 65.4476 67.465C67.3595 67.465 69.0362 65.9886 69.0362 63.7741C69.0362 61.5596 67.389 60.0833 65.4476 60.0833Z" fill="#99A2B3"/>
<path d="M64.5946 63.4788V62.1206H65.5065C65.9771 62.1206 66.5066 62.1796 66.5066 62.7406C66.5066 63.4198 66.0065 63.4493 65.4477 63.4493C65.4182 63.4788 64.5946 63.4788 64.5946 63.4788ZM67.1537 62.8292C67.1537 61.9434 66.6242 61.5596 65.5653 61.5596H63.9181V65.9296H64.624V64.0694H65.3006L66.4183 65.9296H67.2419L66.0359 64.0103C66.6831 63.9513 67.1537 63.6265 67.1537 62.8292Z" fill="#99A2B3"/>
<path d="M295.411 42.0128C293.5 42.0128 292.323 40.5069 292.323 38.6762C292.323 36.7275 293.676 35.3397 295.411 35.3397C297.118 35.3397 298.471 36.6979 298.471 38.6762C298.471 40.6545 297.118 42.0128 295.411 42.0128ZM295.411 35.0149C293.47 35.0149 291.793 36.4912 291.793 38.7058C291.793 40.8022 293.294 42.3966 295.411 42.3966C297.323 42.3966 299 40.9203 299 38.7058C299 36.4617 297.323 35.0149 295.411 35.0149Z" fill="#99A2B3"/>
<path d="M294.529 38.3809V37.0522H295.441C295.911 37.0522 296.441 37.1113 296.441 37.6723C296.441 38.3514 295.941 38.3809 295.382 38.3809H294.529ZM297.117 37.7609C297.117 36.8751 296.588 36.4912 295.529 36.4912H293.882V40.8612H294.588V39.001H295.264L296.382 40.8612H297.206L296 38.9419C296.617 38.8829 297.117 38.5581 297.117 37.7609Z" fill="#99A2B3"/>
<path d="M40.5922 26.7769L39.2097 22.8203L27.3262 6.90528L29.444 6.37379L49.8872 24.1195L61.9178 20.6648C63.3297 20.3105 64.9475 20.2219 66.1535 20.2219C62.3885 12.043 55.4466 5.31082 46.3281 2.06286C28.2969 -4.40354 8.44198 5.07461 2.02958 23.2041C0.0293873 28.8143 -0.411832 34.6015 0.411778 40.0935L29.2087 30.0544L40.5922 26.7769Z" fill="#99A2B3"/>
<path d="M67.4478 23.3518C66.3889 24.0309 64.8299 24.9463 63.3003 25.4482L51.2403 28.9029L43.2101 54.8275L41.1217 55.5066L42.8277 35.7236L41.8864 31.6193L30.5912 34.8673L0.705933 41.8652C3.08852 53.3807 11.207 63.4494 23.0611 67.6717C41.1217 74.1381 60.9471 64.66 67.389 46.5304C70.1539 38.7649 69.9774 30.6154 67.4478 23.3518Z" fill="#99A2B3"/>
<path d="M41.8571 31.5898L42.7984 35.694L41.0923 55.477L43.1808 54.7979L51.211 28.8733L63.271 25.4186C64.8005 24.9167 66.3595 24.0309 67.4184 23.3222C67.0361 22.2593 66.6243 21.2258 66.1536 20.1924C64.9182 20.1924 63.3298 20.2514 61.9179 20.6353L49.8873 24.0899L29.4441 6.34424L27.3263 6.87572L39.1804 22.7907L40.5629 26.7473L29.1794 30.0248L0.382446 40.064C0.47069 40.6545 0.588349 41.2746 0.706008 41.8651L30.5619 34.8082L41.8571 31.5898Z" fill="white"/>
</g>
<defs>
<clipPath id="clip0_229_108">
<rect width="299" height="85" fill="white"/>
</clipPath>
</defs>
</svg>
