<?xml version="1.0" encoding="UTF-8"?>
<svg id="Layer_1" data-name="Layer 1" xmlns="http://www.w3.org/2000/svg" viewBox="0 0 375.59 307">
  <defs>
    <style>
      .cls-1 {
        fill: #ef1c48;
      }

      .cls-2 {
        fill: #fff;
      }

      .cls-3 {
        fill: #faa6b8;
      }

      .cls-4 {
        fill: #ef1c49;
      }

      .cls-5 {
        fill: #faa9ba;
      }

      .cls-6 {
        fill: #f8aab8;
      }

      .cls-7 {
        fill: #f9aaba;
      }

      .cls-8 {
        fill: #f78da3;
      }

      .cls-9 {
        fill: #f9a9ba;
      }

      .cls-10 {
        fill: #f35375;
      }

      .cls-11 {
        fill: #f77f98;
      }

      .cls-12 {
        fill: #f13760;
      }
    </style>
  </defs>
  <path class="cls-4" d="m125.73,225.29c-24.86-2.55-10.14,16.91-16.04,29.61-22.7-43.35-63.85-46.92-103.89-52.85C.21,161.53,4.48,120.83,3.63,80.23c16.73-9.91,35.98.76,53.05-6.38h0c3.85-20.14,3.3-40.3.4-60.48C63.35,1.7,74.16-.02,86.02,0c53.18.09,106.36.02,159.53.07,10.59.01,21.8-.84,24.86,13.23,5.68,19.91-1.79,40.68,4.02,60.58l.84-.51c17.88,7.55,37.27-1.6,55.24,4.94l-.19.19c5.36,47.7.74,95.56,2.55,143.31.45,11.9-3.36,24.23,2.78,35.71,15.37,8.26,28.33,18.92,39.92,40.03-51.83-27.37-100.11-45.26-156.21-27.41,13.03,10.34,19.7,27.2,44.98,25.47-21.58,9.51-37.87,19.93-46.44-7.52-1.63-5.23-7.09-9.47-13.28-11.85-5.94-2.29-6.72-3.02-2.14-11.12,8.28-14.65-9.65-21.67-18.88-28.82-7.81-6.05-19.27-7.47-29.11-10.94-9.59-3.11-19.18-2.98-28.78-.06Z"/>
  <path class="cls-8" d="m335.66,257.51c-9.56-5.88-4.86-15.27-4.93-22.89-.52-52.04-.35-104.08-.4-156.13,8.67,6.32,4.49,15.49,4.58,23.26.59,51.91.57,103.83.75,155.75Z"/>
  <path class="cls-1" d="m81.68,279.22c21.26-3.02,39.29,2.4,53.54,17.73,1.76,1.89,5.32,3.83,2.25,7.18-1.86,2.03-3.56,4.41-7.26,1.54-14.61-11.35-32.19-17.52-48.53-26.45Z"/>
  <path class="cls-10" d="m5.88,78.99c-.03,41.02-.05,82.04-.08,123.06-9.32-4.91-4.59-13.52-4.66-20.25-.37-34.29.1-68.6.27-102.9,1.53-2.28,3.02-2.15,4.46.08Z"/>
  <path class="cls-7" d="m57.09,13.37c6.52,20.2,7.37,40.36-.4,60.47.13-20.16.27-40.31.4-60.47Z"/>
  <path class="cls-12" d="m274.43,73.88c-9.31-19.67-2.15-40.42-4.02-60.58,9.4,19.67,2.16,40.42,4.02,60.58Z"/>
  <path class="cls-9" d="m5.88,78.99l-2.23-.32s-2.24.23-2.24.23c17.57-10.91,36.93-2.44,55.27-5.05-16.07,10.17-34.07,1.42-50.8,5.14Z"/>
  <path class="cls-5" d="m330.52,78.31c-18.32-2.65-37.65,5.75-55.24-4.94,18.28,3.12,37.56-4.76,55.24,4.94Z"/>
  <path class="cls-3" d="m125.73,225.29c9.61-6.6,19.2-6.31,28.78.06-9.59-.02-19.19-.04-28.78-.06Z"/>
  <path class="cls-11" d="m269.82,298.92c-1.04-.56-2.09-1.13-3.13-1.69,1.04-.56,2.09-1.13,3.13-1.69,1.11.75,1.47,1.5,1.11,2.25-.37.75-.73,1.13-1.11,1.13Z"/>
  <path class="cls-6" d="m269.82,298.92c.15-1.13.15-2.25,0-3.38,1.05.56,2.09,1.13,3.14,1.69-1.05.56-2.1,1.13-3.14,1.69Z"/>
  <path class="cls-2" d="m85.1,73.35c0-15.08,0-30.16,0-45.25,28.68-6.07,57.7-2.06,86.53-2.31,25.05-.22,50.29-3.18,75.24,1.95l.21-.17c3.4,15.44,3.4,30.87,0,46.31l-.21-.17c-53.93,3.61-107.86,4.16-161.77-.37Z"/>
  <path class="cls-2" d="m161.19,211.58c-10.29-9.25-13.07-24.16-26.13-30.55-1.93-.95-3.85-5.72-3.05-7.58,1.78-4.18,7.31-3.95,9.96-2.28,19.82,12.49,30.9-5.76,44.52-12.81,9.97-5.16,1.46-11.03-2.76-16.13-7.43-8.98-25.68-18.34-21.09-25.92,8.34-13.76,21.12,8.73,33.73,3.87.52-.2,1.61.27,2.07.76,23.33,24.86,47.67,8.38,71.36,1.14,6.67-2.04,12.76-3.89,15.79,2.56,2.43,5.17-.75,13.21-5.71,14.97-29.96,10.57-37.98,31.33-32.27,60.64,1.47,7.52.12,18.23-10.95,18.74-9.49.44-8.24-10.95-12.93-16.18-6.6-7.37-2.79-25.59-13.49-24.14-16.4,2.23-37.03,3.78-43.05,25.95-.7,2.56-3.77,4.48-5.98,6.96Z"/>
  <path class="cls-5" d="m246.87,27.74c-53.92.12-107.85.24-161.77.37,53.9-8.7,107.83-7.67,161.77-.37Z"/>
  <path class="cls-5" d="m85.1,73.35c53.92.12,107.85.24,161.77.37-2.4,5.45-7.43,4.58-11.86,4.59-46.2.08-92.4.09-138.59-.01-4.31,0-9.53,1.16-11.32-4.94Z"/>
  <path class="cls-8" d="m247.08,73.88c0-15.44,0-30.87,0-46.31,7.02,15.44,7.01,30.87,0,46.31Z"/>
</svg>