<svg width="49" height="43" viewBox="0 0 49 43" fill="none" xmlns="http://www.w3.org/2000/svg">
<path fill-rule="evenodd" clip-rule="evenodd" d="M24.6749 21.7215C23.9177 21.7215 23.1915 22.0223 22.6561 22.5577C22.1206 23.0931 21.8198 23.8193 21.8198 24.5765C21.8198 25.3337 22.1206 26.0599 22.6561 26.5953C23.1915 27.1307 23.9177 27.4315 24.6749 27.4315C25.4321 27.4315 26.1583 27.1307 26.6937 26.5953C27.2291 26.0599 27.5299 25.3337 27.5299 24.5765C27.5299 23.8193 27.2291 23.0931 26.6937 22.5577C26.1583 22.0223 25.4321 21.7215 24.6749 21.7215ZM18.3938 24.5765C18.3938 22.9106 19.0556 21.313 20.2335 20.1351C21.4114 18.9572 23.009 18.2954 24.6749 18.2954C26.3407 18.2954 27.9384 18.9572 29.1163 20.1351C30.2942 21.313 30.956 22.9106 30.956 24.5765C30.956 26.2423 30.2942 27.84 29.1163 29.0179C27.9384 30.1958 26.3407 30.8576 24.6749 30.8576C23.009 30.8576 21.4114 30.1958 20.2335 29.0179C19.0556 27.84 18.3938 26.2423 18.3938 24.5765Z" fill="#F56E4D"/>
<path fill-rule="evenodd" clip-rule="evenodd" d="M24.6748 12.5854C22.3034 12.5857 19.9853 13.2891 18.0136 14.6068C16.0419 15.9244 14.5052 17.797 13.5977 19.988C12.6903 22.1789 12.4528 24.5897 12.9154 26.9156C13.3779 29.2414 14.5198 31.3779 16.1965 33.0549C16.36 33.213 16.4904 33.4021 16.5801 33.6111C16.6698 33.8202 16.7169 34.045 16.7188 34.2724C16.7207 34.4999 16.6772 34.7254 16.591 34.9359C16.5047 35.1464 16.3775 35.3376 16.2165 35.4984C16.0556 35.6591 15.8643 35.7862 15.6537 35.8723C15.4432 35.9583 15.2176 36.0015 14.9901 35.9995C14.7627 35.9974 14.5379 35.95 14.329 35.8601C14.12 35.7703 13.9311 35.6397 13.7731 35.476C11.617 33.3199 10.1487 30.5728 9.5538 27.5821C8.95894 24.5915 9.26426 21.4916 10.4312 18.6745C11.5981 15.8574 13.5741 13.4495 16.1095 11.7555C18.6448 10.0614 21.6256 9.15723 24.6748 9.15723C27.724 9.15723 30.7048 10.0614 33.2401 11.7555C35.7755 13.4495 37.7515 15.8574 38.9184 18.6745C40.0853 21.4916 40.3906 24.5915 39.7958 27.5821C39.2009 30.5728 37.7326 33.3199 35.5765 35.476C35.2517 35.7786 34.8222 35.9433 34.3785 35.9355C33.9347 35.9277 33.5112 35.7479 33.1974 35.434C32.8835 35.1202 32.7037 34.6967 32.6959 34.2529C32.6881 33.8092 32.8528 33.3797 33.1554 33.0549C34.833 31.3779 35.9756 29.241 36.4385 26.9145C36.9015 24.5881 36.664 22.1766 35.7562 19.9851C34.8483 17.7936 33.3109 15.9206 31.3384 14.603C29.3659 13.2855 27.0469 12.5848 24.6748 12.5854Z" fill="#F56E4D"/>
<path fill-rule="evenodd" clip-rule="evenodd" d="M24.675 3.67772C20.5417 3.67775 16.5011 4.90346 13.0643 7.19986C9.62753 9.49626 6.94888 12.7602 5.36711 16.579C3.78533 20.3977 3.37146 24.5998 4.17784 28.6538C4.98422 32.7077 6.97463 36.4315 9.89736 39.3543C10.0657 39.5111 10.2007 39.7003 10.2943 39.9104C10.3879 40.1205 10.4383 40.3473 10.4423 40.5774C10.4464 40.8074 10.4041 41.0358 10.3179 41.2491C10.2317 41.4624 10.1035 41.6562 9.94085 41.8189C9.77818 41.9815 9.58442 42.1098 9.37112 42.1959C9.15782 42.2821 8.92935 42.3244 8.69934 42.3203C8.46933 42.3163 8.24249 42.2659 8.03236 42.1723C7.82223 42.0787 7.63311 41.9437 7.47629 41.7754C4.07394 38.3737 1.75677 34.0394 0.81783 29.3207C-0.121113 24.602 0.360343 19.7108 2.20131 15.2657C4.04228 10.8207 7.16006 7.02139 11.1604 4.34834C15.1607 1.67528 19.8638 0.248535 24.675 0.248535C29.4863 0.248535 34.1894 1.67528 38.1897 4.34834C42.19 7.02139 45.3078 10.8207 47.1488 15.2657C48.9898 19.7108 49.4712 24.602 48.5323 29.3207C47.5933 34.0394 45.2762 38.3737 41.8738 41.7754C41.5491 42.078 41.1196 42.2427 40.6758 42.2349C40.232 42.227 39.8086 42.0473 39.4947 41.7334C39.1809 41.4195 39.0011 40.9961 38.9933 40.5523C38.9854 40.1085 39.1501 39.679 39.4527 39.3543C42.3755 36.4315 44.3659 32.7077 45.1723 28.6538C45.9786 24.5998 45.5648 20.3977 43.983 16.579C42.4012 12.7602 39.7226 9.49626 36.2858 7.19986C32.849 4.90346 28.8084 3.67775 24.675 3.67772Z" fill="#F56E4D"/>
</svg>
