<svg width="100" height="100" viewBox="0 0 100 100" fill="none" xmlns="http://www.w3.org/2000/svg">
<circle cx="50" cy="50" r="50" fill="url(#paint0_linear_231_156)"/>
<path d="M49.9598 24.8579C56.2404 24.8579 62.2638 27.3529 66.7048 31.7939C71.1459 36.235 73.6408 42.2583 73.6408 48.5389C73.6408 58.3429 66.1681 68.6151 51.5385 79.5873C51.0831 79.9289 50.5291 80.1136 49.9598 80.1136C49.3905 80.1136 48.8365 79.9289 48.3811 79.5873C33.7515 68.6151 26.2788 58.3429 26.2788 48.5389C26.2788 42.2583 28.7738 36.235 33.2148 31.7939C37.6559 27.3529 43.6792 24.8579 49.9598 24.8579ZM49.9598 40.6452C47.8663 40.6452 45.8585 41.4769 44.3781 42.9573C42.8978 44.4376 42.0661 46.4454 42.0661 48.5389C42.0661 50.6324 42.8978 52.6402 44.3781 54.1206C45.8585 55.6009 47.8663 56.4326 49.9598 56.4326C52.0533 56.4326 54.0611 55.6009 55.5415 54.1206C57.0218 52.6402 57.8535 50.6324 57.8535 48.5389C57.8535 46.4454 57.0218 44.4376 55.5415 42.9573C54.0611 41.4769 52.0533 40.6452 49.9598 40.6452Z" fill="#F9F9F9"/>
<ellipse cx="49.9593" cy="47.7373" rx="12.0872" ry="12.5189" fill="#F9F9F9"/>
<path d="M42.2207 59.2329L44.2865 50.3571L37.3579 44.3872L46.5113 43.5976L50.071 35.2272L53.6306 43.5976L62.784 44.3872L55.8554 50.3571L57.9213 59.2329L50.071 54.5265L42.2207 59.2329Z" fill="#F24268"/>
<defs>
<linearGradient id="paint0_linear_231_156" x1="50" y1="-6.10795" x2="50" y2="100" gradientUnits="userSpaceOnUse">
<stop stop-color="#EF1C49"/>
<stop offset="1" stop-color="#F4899F"/>
</linearGradient>
</defs>
</svg>
