<svg width="162" height="17" viewBox="0 0 162 17" fill="none" xmlns="http://www.w3.org/2000/svg">
<path d="M159.8 7.5026C160.899 7.61326 161.879 6.81204 161.99 5.71303C162.101 4.61401 161.299 3.63338 160.2 3.52272L159.8 7.5026ZM2.01245 5.5126L0.15349 6.25034C0.454939 7.00993 1.1882 7.50971 2.00541 7.51259L2.01245 5.5126ZM127.002 10.6943L126.807 12.6847L126.807 12.6847L127.002 10.6943ZM9.27969 12.9727C8.17513 12.9685 7.2763 13.8605 7.27209 14.9651C7.26788 16.0696 8.15989 16.9685 9.26445 16.9727L9.27969 12.9727ZM160.2 3.52272C130.732 0.555634 90.8264 -0.261774 58.4787 0.0685729C42.2992 0.233804 27.9794 0.686486 17.7718 1.30447C12.6763 1.61296 8.56536 1.96493 5.74941 2.34904C4.35903 2.5387 3.19633 2.74744 2.36913 2.988C1.98491 3.09974 1.50079 3.26535 1.0896 3.53444C0.887747 3.66654 0.539492 3.92755 0.287406 4.37051C-0.0161176 4.90387 -0.109088 5.5887 0.15349 6.25034L3.87141 4.77486C4.09341 5.33425 4.0096 5.91714 3.76388 6.34893C3.5696 6.69032 3.32779 6.85013 3.27992 6.88145C3.17671 6.94899 3.19075 6.91478 3.48611 6.82888C4.01806 6.67419 4.94014 6.49648 6.29002 6.31234C8.95459 5.94888 12.9461 5.60395 18.0135 5.29716C28.1317 4.68459 42.3799 4.23319 58.5195 4.06836C90.8102 3.7386 130.547 4.55719 159.8 7.5026L160.2 3.52272ZM2.01245 5.5126C2.00541 7.51259 2.00563 7.51259 2.00614 7.51259C2.00669 7.51259 2.00748 7.51259 2.00858 7.5126C2.01077 7.51261 2.01409 7.51262 2.01854 7.51263C2.02745 7.51267 2.04087 7.51272 2.05875 7.51279C2.09451 7.51294 2.14813 7.51316 2.21924 7.51348C2.36144 7.51413 2.57356 7.51516 2.85257 7.51672C3.4106 7.51984 4.23619 7.52506 5.30514 7.53344C7.44305 7.55022 10.5543 7.57967 14.4454 7.63038C22.2277 7.7318 33.128 7.91821 45.5977 8.25819C70.5491 8.93848 101.739 10.2325 126.807 12.6847L127.197 8.70375C101.984 6.23737 70.6801 4.94056 45.7067 4.25968C33.2141 3.91907 22.2944 3.73232 14.4975 3.63072C10.5989 3.57991 7.48068 3.55039 5.33652 3.53357C4.26443 3.52516 3.43583 3.51992 2.87493 3.51678C2.59448 3.51522 2.38095 3.51417 2.23737 3.51352C2.16558 3.5132 2.11127 3.51297 2.07484 3.51282C2.05662 3.51275 2.04286 3.5127 2.03362 3.51266C2.029 3.51265 2.02551 3.51263 2.02316 3.51262C2.02198 3.51262 2.02106 3.51262 2.02047 3.51261C2.01984 3.51261 2.01949 3.51261 2.01245 5.5126ZM126.807 12.6847C129.936 12.9908 132.167 13.2709 133.624 13.5235C134.361 13.6512 134.839 13.7619 135.117 13.8473C135.26 13.8916 135.282 13.9089 135.237 13.8853C135.213 13.8724 135.13 13.8269 135.024 13.7383C134.925 13.6558 134.727 13.4698 134.577 13.157C134.407 12.8046 134.332 12.3554 134.449 11.8886C134.556 11.4619 134.782 11.1844 134.923 11.0432C135.169 10.7974 135.391 10.729 135.327 10.7543C135.263 10.7793 135.013 10.8523 134.474 10.9437C133.448 11.1177 131.832 11.286 129.674 11.4431C121.063 12.0696 104.837 12.4506 86.9666 12.6781C69.119 12.9054 49.6978 12.979 34.7358 12.9959C27.2554 13.0043 20.8908 12.9985 16.3966 12.9906C14.1495 12.9866 12.3699 12.9822 11.1524 12.9787C10.5436 12.9769 10.0753 12.9754 9.75921 12.9744C9.60119 12.9739 9.48124 12.9734 9.40083 12.9731C9.36062 12.973 9.3303 12.9729 9.31005 12.9728C9.29993 12.9728 9.29232 12.9728 9.28725 12.9727C9.28472 12.9727 9.28283 12.9727 9.28156 12.9727C9.28031 12.9727 9.27969 12.9727 9.27207 14.9727C9.26445 16.9727 9.26512 16.9727 9.26643 16.9727C9.26771 16.9727 9.26966 16.9727 9.27223 16.9727C9.27737 16.9727 9.28505 16.9728 9.29525 16.9728C9.31565 16.9729 9.34612 16.973 9.38648 16.9731C9.46719 16.9734 9.58746 16.9738 9.74579 16.9744C10.0625 16.9754 10.5314 16.9769 11.1409 16.9787C12.3598 16.9822 14.1408 16.9866 16.3895 16.9906C20.8869 16.9985 27.2554 17.0043 34.7403 16.9959C49.7089 16.979 69.1477 16.9053 87.0176 16.6778C104.865 16.4505 121.213 16.0693 129.964 15.4325C132.145 15.2738 133.919 15.0949 135.143 14.8874C135.728 14.7881 136.319 14.6618 136.786 14.4785C136.987 14.3996 137.399 14.2248 137.753 13.8703C137.948 13.6748 138.209 13.3424 138.329 12.8601C138.46 12.3378 138.378 11.8326 138.182 11.4235C137.86 10.7539 137.286 10.4435 137.106 10.3483C136.837 10.2066 136.55 10.1035 136.295 10.025C135.776 9.86475 135.102 9.72 134.307 9.58226C132.702 9.30387 130.353 9.01251 127.197 8.70375L126.807 12.6847Z" fill="#EF1C49"/>
</svg>
